<svg width="113" height="103" viewBox="0 0 113 103" fill="none" xmlns="http://www.w3.org/2000/svg">
<rect width="113" height="103" rx="13" fill="white"/>
<path d="M26.32 88.2H19.52L41.84 19.08H48.48L26.32 88.2ZM88.48 40.6C88.48 43.64 87.68 46.3333 86.08 48.68C84.48 50.9733 82.32 52.76 79.6 54.04C80.4 55.32 81.28 56.7867 82.24 58.44C83.2533 60.04 84.2667 61.7733 85.28 63.64C86.2933 65.4533 87.28 67.3467 88.24 69.32C89.2533 71.24 90.1867 73.1333 91.04 75H84C82.4 71.16 80.64 67.48 78.72 63.96C76.8533 60.44 75.04 57.5867 73.28 55.4C72.96 55.4533 72.48 55.48 71.84 55.48C71.2533 55.48 70.8533 55.48 70.64 55.48H65.04V75H58.4V26.2C59.2 25.9867 60.1067 25.8 61.12 25.64C62.1867 25.48 63.2533 25.3733 64.32 25.32C65.44 25.2133 66.5333 25.1333 67.6 25.08C68.6667 25.0267 69.6267 25 70.48 25C76.4533 25 80.9333 26.3067 83.92 28.92C86.96 31.5333 88.48 35.4267 88.48 40.6ZM71.04 30.68C69.8133 30.68 68.6133 30.7067 67.44 30.76C66.32 30.76 65.52 30.8133 65.04 30.92V50.04H69.28C71.2 50.04 72.9067 49.9067 74.4 49.64C75.9467 49.3733 77.2533 48.8933 78.32 48.2C79.44 47.4533 80.2933 46.4667 80.88 45.24C81.4667 43.96 81.76 42.3067 81.76 40.28C81.76 38.36 81.4667 36.7867 80.88 35.56C80.2933 34.3333 79.52 33.3733 78.56 32.68C77.6 31.9333 76.4533 31.4267 75.12 31.16C73.84 30.84 72.48 30.68 71.04 30.68Z" fill="black"/>
</svg>
